<svg width="251" height="251" xmlns="http://www.w3.org/2000/svg" xmlns:xlink="http://www.w3.org/1999/xlink" xml:space="preserve" overflow="hidden"><defs><clipPath id="clip0"><rect x="0" y="0" width="251" height="251"/></clipPath></defs><g clip-path="url(#clip0)"><path d="M249 0C250.105 -4.44089e-16 251 0.895431 251 2L251 249C251 250.105 250.105 251 249 251L2 251C0.895431 251 -2.22045e-16 250.105 -2.22045e-16 249L-2.22045e-16 2C-6.66134e-16 0.895431 0.895431 -2.22045e-16 2 -2.22045e-16Z" fill="#FFFFFF" transform="matrix(-1 0 0 1 251 0)"/><path d="M102 102 251 102 251 251 102 251Z" fill="#FF6E14" transform="matrix(-1 0 0 1 251 0)"/><path d="M251 102 102 251 251 251 251 102Z" fill="#96410A" transform="matrix(-1 0 0 1 251 0)"/></g></svg>